# xmcd CD database file
#
# Track frame offsets:
#	150
#	12281
#	24886
#	37258
#	46640
#	58147
#	69209
#	83661
#	96080
#	106773
#	117764
#	127967
#	137944
#	150517
#	162785
#	175008
#	183814
#	195799
#
# Disc length: 2753 seconds
#
# Revision: 0
# Processed by: cddbd v1.5PL3 Copyright (c) Steve Scherf et al.
# Submitted via: CDex 1.50beta10
#
DISCID=ce0abf12
DTITLE=Earl Bostic - Flamingo
DYEAR=2001
DGENRE=Jazz
TTITLE0=Flamingo
TTITLE1=Blue Skies
TTITLE2=Where Or When
TTITLE3=Goodnight Sweatheart
TTITLE4=Stomp
TTITLE5=Blue Moon
TTITLE6=Sleep
TTITLE7=September Song
TTITLE8=Harlem Nocturn
TTITLE9=Twilight Time
TTITLE10=Arrivederci Roma
TTITLE11=Walk On The Wild Side
TTITLE12=Cherry Pink and Apple Blossom White
TTITLE13=Sweet Lorraine
TTITLE14=Tuxedo Junction
TTITLE15=Sentimental Journey
TTITLE16=Stairway To The Stars
TTITLE17=Twilight Time
EXTD=YEAR: 2001
EXTT0=
EXTT1=
EXTT2=
EXTT3=
EXTT4=
EXTT5=
EXTT6=
EXTT7=
EXTT8=
EXTT9=
EXTT10=
EXTT11=
EXTT12=
EXTT13=
EXTT14=
EXTT15=
EXTT16=
EXTT17=
PLAYORDER=
